<?xml version="1.0" encoding="UTF-8" standalone="no"?>
<!DOCTYPE svg PUBLIC "-//W3C//DTD SVG 1.1//EN" "http://www.w3.org/Graphics/SVG/1.1/DTD/svg11.dtd">
<svg width="100%" height="100%" viewBox="0 0 2264 242" version="1.1" xmlns="http://www.w3.org/2000/svg" xmlns:xlink="http://www.w3.org/1999/xlink" xml:space="preserve" xmlns:affinity="https://www.affinity.studio/" style="fill-rule:evenodd;clip-rule:evenodd;stroke-linejoin:round;stroke-miterlimit:2;">
    <g transform="matrix(1,0,0,1,-18.321,-29.109)">
        <g transform="matrix(1,0,0,1,-16.9631,-31.172751)">
            <g transform="matrix(1.883983,0,0,1,28.3221,63.703751)">
                <path d="M44.407,0C52.215,0 58.593,2.144 63.541,6.431C68.489,10.718 72.154,16.697 74.534,24.367C76.914,32.037 78.104,40.985 78.104,51.212C78.104,61.439 76.914,70.328 74.534,77.88C72.154,85.432 68.489,91.293 63.541,95.462C58.593,99.631 52.215,101.716 44.407,101.716L31.442,101.716L31.442,170.864L42.653,170.864L42.653,177L3.695,177L3.695,170.864L14.969,170.864L14.969,6.136L3.695,6.136L3.695,0L44.407,0ZM31.442,95.58L42.904,95.58C45.743,95.58 48.207,94.262 50.294,91.627C52.382,88.992 54.136,85.53 55.556,81.243C56.975,76.956 58.04,72.196 58.75,66.965C59.46,61.734 59.815,56.483 59.815,51.212C59.815,45.941 59.46,40.651 58.75,35.341C58.04,30.031 56.975,25.173 55.556,20.768C54.136,16.363 52.382,12.823 50.294,10.148C48.207,7.473 45.743,6.136 42.904,6.136L31.442,6.136L31.442,95.58Z" style="fill:white;fill-rule:nonzero;"/>
                <path d="M135.225,179.36C132.803,179.36 130.653,178.613 128.774,177.118C126.895,175.623 125.402,173.342 124.296,170.274C123.189,167.206 122.636,163.233 122.636,158.356L122.636,105.138C122.636,99.474 122.354,94.144 121.79,89.149C121.227,84.154 120.11,80.122 118.439,77.054C116.769,73.986 114.264,72.452 110.923,72.452C109.253,72.452 107.458,72.786 105.537,73.455C103.616,74.124 101.8,75.205 100.088,76.7C98.376,78.195 96.977,80.142 95.892,82.541C94.806,84.94 94.263,87.871 94.263,91.332L90.255,91.332C90.255,86.769 91.121,83.111 92.854,80.358C94.587,77.605 96.58,76.228 98.835,76.228C101.174,76.228 103.261,77.487 105.099,80.004C106.936,82.521 107.854,86.14 107.854,90.86C107.854,96.131 106.915,100.044 105.036,102.601C103.157,105.158 101.09,106.436 98.835,106.436C96.33,106.436 94.253,105.118 92.603,102.483C90.954,99.848 90.129,96.131 90.129,91.332C90.129,87.241 90.797,83.642 92.134,80.535C93.47,77.428 95.265,74.851 97.52,72.806C99.775,70.761 102.291,69.207 105.067,68.145C107.844,67.083 110.652,66.552 113.491,66.552C119.63,66.552 124.431,68.322 127.897,71.862C131.363,75.402 133.805,80.102 135.225,85.963C136.645,91.824 137.355,98.215 137.355,105.138L137.355,160.952C137.355,163.548 137.595,165.711 138.075,167.442C138.555,169.173 139.547,170.038 141.05,170.038C141.969,170.038 143.044,169.389 144.276,168.091C145.507,166.793 146.457,165.003 147.126,162.722L148.942,167.56C147.814,171.1 146.061,173.952 143.681,176.115C141.301,178.278 138.482,179.36 135.225,179.36ZM103.595,179.36C98.167,179.36 93.835,176.744 90.599,171.513C87.363,166.282 85.745,159.182 85.745,150.214C85.745,139.673 88.177,131.314 93.042,125.139C97.906,118.964 104.785,115.876 113.679,115.876L128.461,115.876L128.461,121.304L115.997,121.304C112.656,121.304 109.942,122.602 107.854,125.198C105.767,127.794 104.243,131.059 103.282,134.992C102.322,138.925 101.842,142.937 101.842,147.028C101.842,150.804 102.144,154.246 102.75,157.353C103.355,160.46 104.274,162.938 105.506,164.787C106.737,166.636 108.272,167.56 110.109,167.56C112.072,167.56 114.003,166.321 115.903,163.843C117.803,161.365 119.4,157.628 120.694,152.633C121.989,147.638 122.636,141.364 122.636,133.812L124.578,133.812C124.578,142.859 123.711,150.804 121.978,157.648C120.245,164.492 117.813,169.822 114.681,173.637C111.55,177.452 107.854,179.36 103.595,179.36Z" style="fill:white;fill-rule:nonzero;"/>
                <path d="M211.575,68.44L211.575,74.576L204.247,74.576L181.824,179.36L175.624,179.36L152.762,74.576L144.996,74.576L144.996,68.44L178.755,68.44L178.755,74.576L169.235,74.576L184.204,150.332L200.364,74.576L189.403,74.576L189.403,68.44L211.575,68.44Z" style="fill:white;fill-rule:nonzero;"/>
                <path d="M243.33,179.36C237.735,179.36 232.724,177.138 228.298,172.693C223.872,168.248 220.365,161.817 217.776,153.4C215.187,144.983 213.893,134.756 213.893,122.72C213.893,110.684 215.114,100.457 217.557,92.04C219.999,83.623 223.371,77.211 227.672,72.806C231.973,68.401 236.942,66.198 242.579,66.198C248.633,66.198 253.55,68.499 257.329,73.101C261.108,77.703 263.874,83.741 265.628,91.214C267.381,98.687 268.258,106.711 268.258,115.286L222.348,115.286L222.348,109.032L251.848,109.032C251.807,104.863 251.702,100.615 251.535,96.288C251.368,91.961 250.992,87.989 250.408,84.37C249.823,80.751 248.905,77.821 247.652,75.579C246.399,73.337 244.708,72.216 242.579,72.216C240.157,72.216 238.163,73.494 236.597,76.051C235.031,78.608 233.81,82.148 232.933,86.671C232.056,91.194 231.451,96.406 231.117,102.306C230.783,108.206 230.616,114.539 230.616,121.304C230.616,128.62 230.824,135.366 231.242,141.541C231.66,147.716 232.411,153.105 233.497,157.707C234.582,162.309 236.086,165.888 238.006,168.445C239.927,171.002 242.37,172.28 245.334,172.28C250.47,172.28 254.74,169.841 258.143,164.964C261.546,160.087 264.02,153.793 265.565,146.084L269.198,146.084C267.569,155.603 264.646,163.528 260.429,169.861C256.212,176.194 250.512,179.36 243.33,179.36Z" style="fill:white;fill-rule:nonzero;"/>
                <path d="M308.343,179.36C302.748,179.36 297.738,177.138 293.312,172.693C288.885,168.248 285.378,161.817 282.789,153.4C280.2,144.983 278.906,134.756 278.906,122.72C278.906,110.684 280.127,100.457 282.57,92.04C285.013,83.623 288.384,77.211 292.685,72.806C296.986,68.401 301.955,66.198 307.592,66.198C313.646,66.198 318.563,68.499 322.342,73.101C326.121,77.703 328.887,83.741 330.641,91.214C332.395,98.687 333.272,106.711 333.272,115.286L287.361,115.286L287.361,109.032L316.862,109.032C316.82,104.863 316.715,100.615 316.548,96.288C316.381,91.961 316.006,87.989 315.421,84.37C314.836,80.751 313.918,77.821 312.665,75.579C311.413,73.337 309.721,72.216 307.592,72.216C305.17,72.216 303.176,73.494 301.61,76.051C300.045,78.608 298.823,82.148 297.946,86.671C297.07,91.194 296.464,96.406 296.13,102.306C295.796,108.206 295.629,114.539 295.629,121.304C295.629,128.62 295.838,135.366 296.255,141.541C296.673,147.716 297.424,153.105 298.51,157.707C299.596,162.309 301.099,165.888 303.02,168.445C304.94,171.002 307.383,172.28 310.348,172.28C315.484,172.28 319.753,169.841 323.156,164.964C326.559,160.087 329.033,153.793 330.578,146.084L334.211,146.084C332.583,155.603 329.66,163.528 325.442,169.861C321.225,176.194 315.525,179.36 308.343,179.36Z" style="fill:white;fill-rule:nonzero;"/>
                <path d="M383.065,105.02C381.269,105.02 379.641,104.194 378.18,102.542C376.718,100.89 375.539,98.668 374.641,95.875C373.743,93.082 373.294,89.995 373.294,86.612C373.294,83.229 373.743,80.142 374.641,77.349C375.539,74.556 376.718,72.314 378.18,70.623C379.641,68.932 381.269,68.086 383.065,68.086C384.86,68.086 386.499,68.932 387.982,70.623C389.464,72.314 390.644,74.556 391.52,77.349C392.397,80.142 392.836,83.229 392.836,86.612C392.836,89.995 392.397,93.082 391.52,95.875C390.644,98.668 389.464,100.89 387.982,102.542C386.499,104.194 384.86,105.02 383.065,105.02Z" style="fill:white;fill-rule:nonzero;"/>
                <path d="M450.521,177L450.521,170.864L461.795,170.864L461.795,91.922L434.424,6.136L424.716,6.136L424.716,0L465.553,0L465.553,6.136L453.465,6.136L476.576,80.476L499.751,6.136L487.224,6.136L487.224,0L512.778,0L512.778,6.136L503.634,6.136L478.205,87.438L478.205,170.746L490.732,170.746L490.732,177L450.521,177Z" style="fill:white;fill-rule:nonzero;"/>
                <path d="M560.317,179.36C557.895,179.36 555.745,178.613 553.866,177.118C551.987,175.623 550.494,173.342 549.388,170.274C548.281,167.206 547.728,163.233 547.728,158.356L547.728,105.138C547.728,99.474 547.446,94.144 546.882,89.149C546.319,84.154 545.202,80.122 543.531,77.054C541.861,73.986 539.356,72.452 536.015,72.452C534.345,72.452 532.55,72.786 530.629,73.455C528.708,74.124 526.892,75.205 525.18,76.7C523.468,78.195 522.069,80.142 520.983,82.541C519.898,84.94 519.355,87.871 519.355,91.332L515.346,91.332C515.346,86.769 516.213,83.111 517.946,80.358C519.679,77.605 521.672,76.228 523.927,76.228C526.265,76.228 528.353,77.487 530.19,80.004C532.028,82.521 532.946,86.14 532.946,90.86C532.946,96.131 532.007,100.044 530.128,102.601C528.249,105.158 526.182,106.436 523.927,106.436C521.422,106.436 519.344,105.118 517.695,102.483C516.046,99.848 515.221,96.131 515.221,91.332C515.221,87.241 515.889,83.642 517.225,80.535C518.562,77.428 520.357,74.851 522.612,72.806C524.867,70.761 527.382,69.207 530.159,68.145C532.936,67.083 535.744,66.552 538.583,66.552C544.721,66.552 549.523,68.322 552.989,71.862C556.455,75.402 558.897,80.102 560.317,85.963C561.737,91.824 562.447,98.215 562.447,105.138L562.447,160.952C562.447,163.548 562.687,165.711 563.167,167.442C563.647,169.173 564.639,170.038 566.142,170.038C567.061,170.038 568.136,169.389 569.368,168.091C570.599,166.793 571.549,165.003 572.217,162.722L574.034,167.56C572.906,171.1 571.153,173.952 568.773,176.115C566.392,178.278 563.574,179.36 560.317,179.36ZM528.687,179.36C523.259,179.36 518.927,176.744 515.691,171.513C512.455,166.282 510.837,159.182 510.837,150.214C510.837,139.673 513.269,131.314 518.134,125.139C522.998,118.964 529.877,115.876 538.771,115.876L553.553,115.876L553.553,121.304L541.089,121.304C537.748,121.304 535.034,122.602 532.946,125.198C530.859,127.794 529.334,131.059 528.374,134.992C527.414,138.925 526.934,142.937 526.934,147.028C526.934,150.804 527.236,154.246 527.842,157.353C528.447,160.46 529.366,162.938 530.598,164.787C531.829,166.636 533.364,167.56 535.201,167.56C537.164,167.56 539.095,166.321 540.995,163.843C542.895,161.365 544.492,157.628 545.786,152.633C547.081,147.638 547.728,141.364 547.728,133.812L549.669,133.812C549.669,142.859 548.803,150.804 547.07,157.648C545.337,164.492 542.905,169.822 539.773,173.637C536.642,177.452 532.946,179.36 528.687,179.36Z" style="fill:white;fill-rule:nonzero;"/>
                <path d="M599.15,178.652C595.35,178.652 592.437,177.315 590.412,174.64C588.387,171.965 586.999,168.445 586.247,164.079C585.496,159.713 585.12,155.013 585.12,149.978L585.12,44.84C587.583,44.84 590.245,44.171 593.106,42.834C595.966,41.497 598.294,39.805 600.089,37.76L600.089,152.928C600.089,158.828 600.465,162.879 601.217,165.082C601.968,167.285 603.242,168.386 605.037,168.386C606.791,168.386 608.503,167.029 610.173,164.315C611.843,161.601 613.221,158.199 614.307,154.108L617.188,157.176C615.518,163.627 613.273,168.819 610.455,172.752C607.636,176.685 603.868,178.652 599.15,178.652ZM576.727,74.576L576.727,68.44L613.493,68.44L613.493,74.576L576.727,74.576Z" style="fill:white;fill-rule:nonzero;"/>
                <path d="M698.235,116.584C697.86,111.313 697.077,106.849 695.887,103.191C694.697,99.533 693.006,96.76 690.813,94.872C688.621,92.984 685.834,92.04 682.452,92.04L674.247,92.04L674.247,85.904L682.452,85.904C685.834,85.904 688.621,85.058 690.813,83.367C693.006,81.676 694.697,79.119 695.887,75.697C697.077,72.275 697.86,67.929 698.235,62.658L701.555,62.658L701.555,116.584L698.235,116.584ZM719.531,0L719.531,48.38L716.274,48.38C715.898,39.963 714.938,32.588 713.393,26.255C711.848,19.922 709.572,14.986 706.566,11.446C703.559,7.906 699.676,6.136 694.916,6.136L678.757,6.136L678.757,170.864L691.221,170.864L691.221,177L651.01,177L651.01,170.864L662.284,170.864L662.284,6.136L651.01,6.136L651.01,0L719.531,0Z" style="fill:white;fill-rule:nonzero;"/>
                <path d="M749.219,179.36C744.459,179.36 740.816,177.806 738.289,174.699C735.763,171.592 734.041,167.363 733.122,162.014C732.204,156.665 731.744,150.568 731.744,143.724L731.744,74.576L723.163,74.576L723.163,68.44L746.776,68.44L746.776,139.948C746.776,146.556 746.933,152.004 747.246,156.291C747.559,160.578 748.196,163.764 749.156,165.849C750.117,167.934 751.557,168.976 753.478,168.976C755.942,168.976 758.175,167.501 760.18,164.551C762.184,161.601 763.917,157.766 765.378,153.046C766.84,148.326 767.967,143.173 768.761,137.588C769.554,132.003 769.951,126.575 769.951,121.304L772.08,121.068C772.08,126.417 771.704,132.435 770.953,139.122C770.201,145.809 768.969,152.2 767.257,158.297C765.545,164.394 763.207,169.428 760.242,173.401C757.278,177.374 753.603,179.36 749.219,179.36ZM769.951,177L769.951,74.576L761.495,74.576L761.495,68.44L784.983,68.44L784.983,170.864L793.501,170.864L793.501,177L769.951,177Z" style="fill:white;fill-rule:nonzero;"/>
                <path d="M823.126,68.44L823.126,170.864L830.454,170.864L830.454,177L799.827,177L799.827,170.864L808.407,170.864L808.407,74.576L799.827,74.576L799.827,68.44L823.126,68.44ZM861.332,101.598L861.332,170.864L869.913,170.864L869.913,177L839.16,177L839.16,170.864L846.614,170.864L846.614,105.492C846.614,98.884 846.457,93.436 846.144,89.149C845.831,84.862 845.194,81.676 844.234,79.591C843.273,77.506 841.812,76.464 839.849,76.464C837.427,76.464 835.194,77.939 833.147,80.889C831.101,83.839 829.327,87.674 827.824,92.394C826.32,97.114 825.162,102.247 824.348,107.793C823.533,113.339 823.126,118.787 823.126,124.136L820.809,124.372C820.809,119.023 821.226,113.024 822.061,106.377C822.897,99.73 824.222,93.358 826.039,87.261C827.855,81.164 830.245,76.13 833.21,72.157C836.175,68.184 839.787,66.198 844.046,66.198C848.848,66.198 852.48,67.712 854.944,70.741C857.407,73.77 859.088,77.959 859.986,83.308C860.884,88.657 861.332,94.754 861.332,101.598Z" style="fill:white;fill-rule:nonzero;"/>
                <path d="M905.426,238.36C901.543,238.36 897.858,237.77 894.371,236.59C890.885,235.41 887.774,233.561 885.039,231.044C882.304,228.527 880.154,225.301 878.588,221.368C877.022,217.435 876.239,212.715 876.239,207.208C876.239,202.095 876.886,197.847 878.181,194.464C879.475,191.081 881.104,188.407 883.066,186.44C885.029,184.473 887.002,183.097 888.985,182.31C890.968,181.523 892.67,181.13 894.09,181.13L896.595,181.13C894.34,183.175 892.586,186.145 891.334,190.039C890.081,193.933 889.455,198.633 889.455,204.14C889.455,209.175 890.165,213.777 891.584,217.946C893.004,222.115 895.113,225.419 897.91,227.858C900.708,230.297 904.132,231.516 908.182,231.516C911.021,231.516 913.704,230.946 916.23,229.805C918.757,228.664 921.001,226.934 922.964,224.613C924.926,222.292 926.461,219.342 927.567,215.763C928.674,212.184 929.227,207.995 929.227,203.196C929.227,198.633 928.611,194.838 927.379,191.809C926.147,188.78 924.467,186.499 922.337,184.965C920.208,183.431 917.786,182.664 915.072,182.664L900.416,182.664C894.319,182.664 889.434,180.933 885.759,177.472C882.085,174.011 880.248,168.425 880.248,160.716C880.248,155.996 880.968,151.964 882.409,148.621C883.849,145.278 885.77,142.524 888.171,140.361C890.572,138.198 893.234,136.585 896.157,135.523C899.079,134.461 902.023,133.93 904.988,133.93L904.8,137.588C903.547,137.588 902.128,137.903 900.541,138.532C898.954,139.161 897.43,140.046 895.969,141.187C894.507,142.328 893.296,143.704 892.336,145.317C891.376,146.93 890.895,148.68 890.895,150.568C890.895,154.108 891.96,156.311 894.09,157.176C896.219,158.041 898.996,158.474 902.42,158.474C903.881,158.474 905.311,158.454 906.71,158.415C908.109,158.376 909.477,158.336 910.813,158.297C912.149,158.258 913.402,158.238 914.571,158.238C916.909,158.238 919.341,158.73 921.867,159.713C924.394,160.696 926.753,162.545 928.945,165.259C931.137,167.973 932.901,171.828 934.238,176.823C935.574,181.818 936.242,188.328 936.242,196.352C936.242,203.983 935.396,210.492 933.705,215.881C932.014,221.27 929.707,225.596 926.784,228.861C923.861,232.126 920.563,234.525 916.888,236.059C913.214,237.593 909.393,238.36 905.426,238.36ZM903.673,138.886C900.875,138.886 898.056,138.198 895.217,136.821C892.378,135.444 889.758,133.32 887.357,130.449C884.956,127.578 883.024,123.841 881.563,119.239C880.102,114.637 879.371,109.071 879.371,102.542C879.371,96.013 880.102,90.447 881.563,85.845C883.024,81.243 884.956,77.506 887.357,74.635C889.758,71.764 892.378,69.64 895.217,68.263C898.056,66.886 900.875,66.198 903.673,66.198C906.428,66.198 909.216,66.886 912.034,68.263C914.853,69.64 917.431,71.764 919.769,74.635C922.108,77.506 923.987,81.243 925.406,85.845C926.826,90.447 927.536,96.013 927.536,102.542C927.536,109.071 926.826,114.637 925.406,119.239C923.987,123.841 922.108,127.578 919.769,130.449C917.431,133.32 914.853,135.444 912.034,136.821C909.216,138.198 906.428,138.886 903.673,138.886ZM903.673,132.632C905.677,132.632 907.347,131.354 908.683,128.797C910.019,126.24 911.011,122.7 911.658,118.177C912.305,113.654 912.629,108.442 912.629,102.542C912.629,96.327 912.305,90.978 911.658,86.494C911.011,82.01 910.019,78.529 908.683,76.051C907.347,73.573 905.677,72.334 903.673,72.334C901.627,72.334 899.946,73.573 898.631,76.051C897.315,78.529 896.334,82.01 895.687,86.494C895.04,90.978 894.716,96.327 894.716,102.542C894.716,108.442 894.904,113.654 895.28,118.177C895.655,122.7 896.48,126.24 897.754,128.797C899.027,131.354 901,132.632 903.673,132.632ZM940.313,101.598C938.476,101.598 936.806,100.418 935.302,98.058C933.799,95.698 933.048,92.315 933.048,87.91C933.048,83.426 933.81,80.181 935.334,78.175C936.858,76.169 938.517,75.166 940.313,75.166C942.025,75.166 943.695,76.169 945.324,78.175C946.952,80.181 947.766,83.072 947.766,86.848L944.509,86.848C944.509,83.308 943.758,80.161 942.255,77.408C940.751,74.655 938.726,73.278 936.179,73.278C934.718,73.278 933.068,73.907 931.231,75.166C929.394,76.425 927.671,78.765 926.064,82.187C924.456,85.609 923.235,90.545 922.4,96.996L920.082,93.692C920.918,86.927 922.243,81.617 924.06,77.762C925.876,73.907 927.859,71.193 930.01,69.62C932.16,68.047 934.133,67.26 935.929,67.26C938.35,67.26 940.459,68.224 942.255,70.151C944.05,72.078 945.438,74.537 946.42,77.526C947.401,80.515 947.892,83.623 947.892,86.848C947.892,92.433 947.088,96.288 945.48,98.412C943.873,100.536 942.15,101.598 940.313,101.598Z" style="fill:white;fill-rule:nonzero;"/>
                <path d="M983.467,177L983.467,170.864L994.741,170.864L994.741,6.136L983.467,6.136L983.467,0L1022.425,0L1022.425,6.136L1011.214,6.136L1011.214,170.864L1026.246,170.864C1030.964,170.864 1034.868,169.822 1037.958,167.737C1041.048,165.652 1043.512,162.604 1045.349,158.592C1047.186,154.58 1048.543,149.663 1049.42,143.842C1050.297,138.021 1050.882,131.373 1051.174,123.9L1054.493,123.9L1054.493,177L983.467,177Z" style="fill:white;fill-rule:nonzero;"/>
                <path d="M1083.931,122.72L1083.931,116.584L1124.079,116.584L1124.079,122.72L1083.931,122.72ZM1111.615,-3.422L1143.683,170.864L1153.704,170.864L1153.704,177L1113.181,177L1113.181,170.864L1124.705,170.864L1101.343,34.692L1076.102,170.864L1088.691,170.864L1088.691,177L1061.07,177L1061.07,170.864L1072.344,170.864L1104.976,-3.422L1111.615,-3.422Z" style="fill:white;fill-rule:nonzero;"/>
                <path d="M1159.843,177L1159.843,170.864L1173.622,170.864L1173.622,6.136L1159.843,6.136L1159.843,0L1205.064,0L1205.064,6.136L1190.032,6.136L1190.032,170.864L1205.064,170.864L1205.064,177L1159.843,177Z" style="fill:white;fill-rule:nonzero;"/>
            </g>
        </g>
    </g>
</svg>
